<?xml version="1.0" encoding="UTF-8" standalone="no"?>
<!-- Created with Inkscape (http://www.inkscape.org/) -->

<svg
   xmlns:dc="http://purl.org/dc/elements/1.1/"
   xmlns:cc="http://creativecommons.org/ns#"
   xmlns:rdf="http://www.w3.org/1999/02/22-rdf-syntax-ns#"
   xmlns:svg="http://www.w3.org/2000/svg"
   xmlns="http://www.w3.org/2000/svg"
   xmlns:sodipodi="http://sodipodi.sourceforge.net/DTD/sodipodi-0.dtd"
   xmlns:inkscape="http://www.inkscape.org/namespaces/inkscape"
   width="744.09448819"
   height="1052.3622047"
   id="svg2"
   version="1.1"
   inkscape:version="0.48.5 r10040"
   sodipodi:docname="drawing.svg">
  <defs
     id="defs4" />
  <sodipodi:namedview
     id="base"
     pagecolor="#ffffff"
     bordercolor="#666666"
     borderopacity="1.0"
     inkscape:pageopacity="0.0"
     inkscape:pageshadow="2"
     inkscape:zoom="1.33"
     inkscape:cx="271.10111"
     inkscape:cy="911.12069"
     inkscape:document-units="px"
     inkscape:current-layer="layer1"
     showgrid="false"
     showguides="true"
     inkscape:guide-bbox="true"
     inkscape:snap-global="false"
     inkscape:window-width="1440"
     inkscape:window-height="804"
     inkscape:window-x="0"
     inkscape:window-y="0"
     inkscape:window-maximized="0">
    <inkscape:grid
       type="xygrid"
       id="grid2985" />
    <sodipodi:guide
       orientation="0,1"
       position="-20,392"
       id="guide2987" />
    <sodipodi:guide
       orientation="0,1"
       position="608.51064,596.80851"
       id="guide3774" />
    <sodipodi:guide
       orientation="0,1"
       position="593.61702,895.74468"
       id="guide3797" />
    <sodipodi:guide
       orientation="1,0"
       position="150,773.40426"
       id="guide3799" />
    <sodipodi:guide
       orientation="1,0"
       position="490.42553,747.87234"
       id="guide3801" />
  </sodipodi:namedview>
  <metadata
     id="metadata7">
    <rdf:RDF>
      <cc:Work
         rdf:about="">
        <dc:format>image/svg+xml</dc:format>
        <dc:type
           rdf:resource="http://purl.org/dc/dcmitype/StillImage" />
        <dc:title></dc:title>
      </cc:Work>
    </rdf:RDF>
  </metadata>
  <g
     inkscape:label="Layer 1"
     inkscape:groupmode="layer"
     id="layer1">
    <g
       id="g3834"
       transform="matrix(0.1669627,0,0,0.16976053,8.890462,44.947929)">
      <path
         sodipodi:nodetypes="cccc"
         inkscape:connector-curvature="0"
         id="path3807"
         d="m 370.21277,334.27707 c 0,0 -4.25532,41.48937 -52.12766,82.97873 C 244.68085,484.27707 150,449.17069 150,449.17069 161.70213,358.74516 242.55319,322.57495 242.55319,322.57495"
         style="fill:none;stroke:#000000;stroke-width:20;stroke-linecap:butt;stroke-linejoin:miter;stroke-miterlimit:4;stroke-opacity:1;stroke-dasharray:none" />
      <path
         sodipodi:nodetypes="cccc"
         inkscape:connector-curvature="0"
         id="path3809"
         d="m 282.04255,308.74516 c 53.19149,-13.82979 90.29788,3.19149 90.29788,3.19149 109.57446,37.23405 117.02127,139.3617 117.02127,139.3617 -93.61702,32.97872 -155.31915,-20.21276 -155.31915,-20.21276"
         style="fill:none;stroke:#000000;stroke-width:20;stroke-linecap:butt;stroke-linejoin:miter;stroke-miterlimit:4;stroke-opacity:1;stroke-dasharray:none" />
      <path
         sodipodi:nodetypes="ccc"
         inkscape:connector-curvature="0"
         id="path3813"
         d="m 302.12766,400.36218 c 0,0 -105.66447,-114.42112 17.02127,-243.74468 62.76596,52.12766 57.44681,132.29788 57.44681,132.29788"
         style="fill:none;stroke:#000000;stroke-width:20;stroke-linecap:butt;stroke-linejoin:miter;stroke-miterlimit:4;stroke-opacity:1;stroke-dasharray:none" />
    </g>
    <rect
       style="opacity:0.54918033;fill:none;stroke:#000000;stroke-width:0.56943262;stroke-linecap:butt;stroke-miterlimit:4;stroke-opacity:1;stroke-dasharray:none"
       id="rect3839"
       width="65.430565"
       height="65.430565"
       x="29.859903"
       y="65.342392" />
    <rect
       style="opacity:0.54918033;fill:none;stroke:#000000;stroke-width:0.60395753;stroke-linecap:butt;stroke-miterlimit:4;stroke-opacity:1;stroke-dasharray:none"
       id="rect3841"
       width="127.39603"
       height="127.39604"
       x="124.61401"
       y="65.765671" />
    <g
       transform="matrix(0.34054004,0,0,0.34624655,79.340958,22.816785)"
       id="g3843">
      <path
         style="fill:none;stroke:#000000;stroke-width:20;stroke-linecap:butt;stroke-linejoin:miter;stroke-miterlimit:4;stroke-opacity:1;stroke-dasharray:none"
         d="m 370.21277,334.27707 c 0,0 -4.25532,41.48937 -52.12766,82.97873 C 244.68085,484.27707 150,449.17069 150,449.17069 161.70213,358.74516 242.55319,322.57495 242.55319,322.57495"
         id="path3845"
         inkscape:connector-curvature="0"
         sodipodi:nodetypes="cccc" />
      <path
         style="fill:none;stroke:#000000;stroke-width:20;stroke-linecap:butt;stroke-linejoin:miter;stroke-miterlimit:4;stroke-opacity:1;stroke-dasharray:none"
         d="m 282.04255,308.74516 c 53.19149,-13.82979 90.29788,3.19149 90.29788,3.19149 109.57446,37.23405 117.02127,139.3617 117.02127,139.3617 -93.61702,32.97872 -155.31915,-20.21276 -155.31915,-20.21276"
         id="path3847"
         inkscape:connector-curvature="0"
         sodipodi:nodetypes="cccc" />
      <path
         style="fill:none;stroke:#000000;stroke-width:20;stroke-linecap:butt;stroke-linejoin:miter;stroke-miterlimit:4;stroke-opacity:1;stroke-dasharray:none"
         d="m 302.12766,400.36218 c 0,0 -105.66447,-114.42112 17.02127,-243.74468 62.76596,52.12766 57.44681,132.29788 57.44681,132.29788"
         id="path3849"
         inkscape:connector-curvature="0"
         sodipodi:nodetypes="ccc" />
    </g>
    <rect
       style="opacity:0.54918033;fill:none;stroke:#000000;stroke-width:1.03103054;stroke-linecap:butt;stroke-miterlimit:4;stroke-opacity:1;stroke-dasharray:none"
       id="rect3851"
       width="254.96896"
       height="254.96896"
       x="275.20346"
       y="53.768673" />
    <g
       id="g3853"
       transform="matrix(0.67850665,0,0,0.68987655,184.19013,-32.492443)">
      <path
         sodipodi:nodetypes="cccc"
         inkscape:connector-curvature="0"
         id="path3855"
         d="m 370.21277,334.27707 c 0,0 -4.25532,41.48937 -52.12766,82.97873 C 244.68085,484.27707 150,449.17069 150,449.17069 161.70213,358.74516 242.55319,322.57495 242.55319,322.57495"
         style="fill:none;stroke:#000000;stroke-width:20;stroke-linecap:butt;stroke-linejoin:miter;stroke-miterlimit:4;stroke-opacity:1;stroke-dasharray:none" />
      <path
         sodipodi:nodetypes="cccc"
         inkscape:connector-curvature="0"
         id="path3857"
         d="m 282.04255,308.74516 c 53.19149,-13.82979 90.29788,3.19149 90.29788,3.19149 109.57446,37.23405 117.02127,139.3617 117.02127,139.3617 -93.61702,32.97872 -155.31915,-20.21276 -155.31915,-20.21276"
         style="fill:none;stroke:#000000;stroke-width:20;stroke-linecap:butt;stroke-linejoin:miter;stroke-miterlimit:4;stroke-opacity:1;stroke-dasharray:none" />
      <path
         sodipodi:nodetypes="ccc"
         inkscape:connector-curvature="0"
         id="path3859"
         d="m 302.12766,400.36218 c 0,0 -105.66447,-114.42112 17.02127,-243.74468 62.76596,52.12766 57.44681,132.29788 57.44681,132.29788"
         style="fill:none;stroke:#000000;stroke-width:20;stroke-linecap:butt;stroke-linejoin:miter;stroke-miterlimit:4;stroke-opacity:1;stroke-dasharray:none" />
    </g>
  </g>
</svg>
